<?xml version="1.0" standalone="no"?>
<!DOCTYPE svg PUBLIC "-//W3C//DTD SVG 20010904//EN"
 "http://www.w3.org/TR/2001/REC-SVG-20010904/DTD/svg10.dtd">
<svg version="1.0" xmlns="http://www.w3.org/2000/svg"
 width="259.000000pt" height="194.000000pt" viewBox="0 0 259.000000 194.000000"
 preserveAspectRatio="xMidYMid meet">

<g transform="translate(0.000000,194.000000) scale(0.100000,-0.100000)"
fill="#000000" stroke="none">
<path d="M1217 1486 c-3 -8 -3 -23 0 -35 3 -14 0 -23 -11 -27 -9 -3 -16 -17
-16 -30 0 -13 -6 -24 -12 -24 -10 0 -13 -58 -13 -255 l0 -255 128 0 127 0 1
43 c5 188 -1 462 -10 465 -6 2 -11 15 -11 28 0 15 -6 24 -15 24 -8 0 -14 8
-13 18 5 61 3 62 -76 62 -54 0 -75 -4 -79 -14z m134 -13 c1 -5 2 -21 3 -37 1
-16 7 -31 14 -34 7 -2 12 -15 12 -28 0 -14 6 -24 14 -24 11 0 14 -41 14 -235
0 -135 -4 -235 -9 -235 -5 0 -9 10 -10 23 -1 21 -1 21 -9 -3 -8 -25 -8 -25 -9
-2 -1 13 -5 21 -11 17 -5 -3 -7 -12 -3 -20 3 -8 0 -15 -6 -15 -8 0 -11 75 -11
255 0 163 -4 255 -10 255 -6 0 -10 -85 -10 -235 0 -150 -4 -235 -10 -235 -6 0
-11 87 -12 238 l-3 237 -2 -237 c-2 -147 -7 -238 -13 -238 -6 0 -10 88 -10
235 0 150 -4 235 -10 235 -6 0 -10 -93 -10 -257 -1 -229 -2 -255 -15 -233
l-14 25 -2 -25 -1 -25 -8 25 c-8 24 -8 24 -9 3 -1 -13 -5 -23 -9 -23 -5 0 -9
104 -10 231 0 191 2 231 14 236 8 3 14 16 14 28 0 13 4 25 10 27 5 2 12 19 14
38 3 19 5 36 5 38 2 6 111 1 112 -5z"/>
<path d="M1253 1435 c0 -22 2 -30 4 -17 2 12 2 30 0 40 -3 9 -5 -1 -4 -23z"/>
<path d="M1283 1435 c0 -22 2 -30 4 -17 2 12 2 30 0 40 -3 9 -5 -1 -4 -23z"/>
<path d="M1303 1435 c0 -22 2 -30 4 -17 2 12 2 30 0 40 -3 9 -5 -1 -4 -23z"/>
<path d="M1333 1435 c0 -22 2 -30 4 -17 2 12 2 30 0 40 -3 9 -5 -1 -4 -23z"/>
<path d="M1222 1370 c0 -14 2 -19 5 -12 2 6 2 18 0 25 -3 6 -5 1 -5 -13z"/>
<path d="M1350 1376 c0 -8 5 -18 10 -21 6 -3 10 3 10 14 0 12 -4 21 -10 21 -5
0 -10 -6 -10 -14z"/>
<path d="M1355 1330 c-3 -5 -1 -10 4 -10 6 0 11 5 11 10 0 6 -2 10 -4 10 -3 0
-8 -4 -11 -10z"/>
<path d="M1220 1300 c0 -5 5 -10 11 -10 5 0 7 5 4 10 -3 6 -8 10 -11 10 -2 0
-4 -4 -4 -10z"/>
<path d="M1355 1270 c-3 -5 -1 -10 4 -10 6 0 11 5 11 10 0 6 -2 10 -4 10 -3 0
-8 -4 -11 -10z"/>
<path d="M1220 1240 c0 -5 5 -10 11 -10 5 0 7 5 4 10 -3 6 -8 10 -11 10 -2 0
-4 -4 -4 -10z"/>
<path d="M1355 1180 c-3 -5 -1 -10 4 -10 6 0 11 5 11 10 0 6 -2 10 -4 10 -3 0
-8 -4 -11 -10z"/>
<path d="M1355 1120 c-3 -5 -1 -10 4 -10 6 0 11 5 11 10 0 6 -2 10 -4 10 -3 0
-8 -4 -11 -10z"/>
<path d="M1220 1090 c0 -5 5 -10 11 -10 5 0 7 5 4 10 -3 6 -8 10 -11 10 -2 0
-4 -4 -4 -10z"/>
<path d="M1355 1060 c-3 -5 -1 -10 4 -10 6 0 11 5 11 10 0 6 -2 10 -4 10 -3 0
-8 -4 -11 -10z"/>
<path d="M1355 1030 c-3 -5 -1 -10 4 -10 6 0 11 5 11 10 0 6 -2 10 -4 10 -3 0
-8 -4 -11 -10z"/>
<path d="M1355 970 c-3 -5 -1 -10 4 -10 6 0 11 5 11 10 0 6 -2 10 -4 10 -3 0
-8 -4 -11 -10z"/>
<path d="M1220 940 c0 -5 5 -10 11 -10 5 0 7 5 4 10 -3 6 -8 10 -11 10 -2 0
-4 -4 -4 -10z"/>
<path d="M780 770 c-51 -51 -5 -144 67 -138 20 2 38 8 40 14 2 6 -8 9 -26 6
-16 -2 -38 1 -49 7 -26 14 -34 60 -16 89 16 25 61 30 70 8 3 -8 12 -12 20 -9
13 5 12 8 -2 24 -23 25 -78 25 -104 -1z"/>
<path d="M965 752 c-33 -7 -45 -23 -45 -58 0 -40 22 -64 59 -64 46 0 79 58 53
96 -11 18 -45 31 -67 26z m40 -62 c0 -28 -4 -36 -21 -38 -28 -4 -48 22 -40 54
5 20 12 25 34 22 24 -3 27 -7 27 -38z"/>
<path d="M1187 753 c-4 -3 -32 -5 -62 -4 l-55 2 0 -60 c0 -72 18 -82 22 -13 3
40 6 47 26 50 20 3 22 0 22 -47 0 -39 4 -51 15 -51 11 0 15 12 15 49 0 48 10
63 38 54 7 -3 12 -23 12 -54 0 -36 4 -49 14 -49 8 0 18 5 21 10 3 6 1 10 -4
10 -6 0 -11 20 -11 45 0 34 -5 47 -19 55 -23 12 -26 12 -34 3z"/>
<path d="M1331 751 c-7 -5 -22 -6 -32 -4 -18 5 -19 -1 -19 -81 0 -70 3 -86 15
-86 9 0 15 9 15 25 0 21 5 25 28 25 58 0 86 82 40 114 -26 18 -28 19 -47 7z
m44 -42 c9 -28 -12 -59 -40 -59 -22 0 -25 4 -25 35 0 51 50 71 65 24z"/>
<path d="M1453 753 c-7 -3 -13 -9 -13 -15 0 -6 7 -7 16 -4 18 7 54 -10 54 -25
0 -7 -10 -9 -23 -5 -32 8 -60 -14 -55 -45 3 -22 7 -24 61 -25 42 -1 55 2 48 9
-6 6 -11 27 -11 46 0 20 -4 41 -8 47 -8 13 -52 24 -69 17z m54 -87 c-5 -16
-37 -20 -50 -7 -9 9 -8 14 2 20 17 11 53 2 48 -13z"/>
<path d="M1620 750 c-6 -4 -21 -5 -31 -3 -17 5 -19 -1 -19 -56 0 -48 3 -61 15
-61 11 0 15 12 15 49 0 52 12 65 43 49 12 -6 17 -21 17 -53 0 -40 3 -45 22
-45 17 0 19 3 10 12 -7 7 -12 28 -12 47 0 20 -4 41 -8 47 -11 16 -37 23 -52
14z"/>
<path d="M1720 709 c0 -22 5 -49 11 -60 7 -15 7 -24 -1 -34 -14 -17 13 -45 44
-45 41 0 56 29 56 108 0 80 -17 99 -22 25 -3 -44 -5 -48 -30 -51 -27 -3 -28
-2 -28 47 0 39 -4 51 -15 51 -11 0 -15 -11 -15 -41z m77 -106 c-17 -17 -51
-10 -45 9 5 15 52 28 57 15 2 -5 -4 -16 -12 -24z"/>
</g>
</svg>
